<?xml version="1.0" encoding="utf-8"?>
<!-- Generator: Adobe Illustrator 17.0.0, SVG Export Plug-In . SVG Version: 6.00 Build 0)  -->
<!DOCTYPE svg PUBLIC "-//W3C//DTD SVG 1.1//EN" "http://www.w3.org/Graphics/SVG/1.1/DTD/svg11.dtd">
<svg version="1.1" id="Livello_1" xmlns="http://www.w3.org/2000/svg" xmlns:xlink="http://www.w3.org/1999/xlink" x="0px" y="0px"
	 width="141.73px" height="141.73px" viewBox="0 0 141.73 141.73" enable-background="new 0 0 141.73 141.73" xml:space="preserve">
<g>
	
		<linearGradient id="SVGID_1_" gradientUnits="userSpaceOnUse" x1="501.9285" y1="37.0133" x2="614.6183" y2="37.0133" gradientTransform="matrix(-1 0 0 1 629.125 0)">
		<stop  offset="0" style="stop-color:#ED1C24"/>
		<stop  offset="0.5" style="stop-color:#BA141A"/>
		<stop  offset="1" style="stop-color:#8B0304"/>
	</linearGradient>
	<linearGradient id="SVGID_2_" gradientUnits="userSpaceOnUse" x1="14.0067" y1="37.0133" x2="127.6965" y2="37.0133">
		<stop  offset="0" style="stop-color:#ED1C24"/>
		<stop  offset="0.5" style="stop-color:#BA141A"/>
		<stop  offset="1" style="stop-color:#8B0304"/>
	</linearGradient>
	
		<polygon fill="url(#SVGID_1_)" stroke="url(#SVGID_2_)" stroke-linecap="round" stroke-linejoin="round" stroke-miterlimit="10" points="
		127.197,36.976 127.197,37.05 70.856,69.579 14.507,37.05 14.507,36.989 70.856,4.447 	"/>
	<g>
		
			<linearGradient id="SVGID_3_" gradientUnits="userSpaceOnUse" x1="556.7542" y1="73.0246" x2="497.3947" y2="105.9996" gradientTransform="matrix(-1 0 0 1 629.125 0)">
			<stop  offset="0.0056" style="stop-color:#005BAA"/>
			<stop  offset="0.5" style="stop-color:#004689"/>
			<stop  offset="1" style="stop-color:#002F67"/>
		</linearGradient>
		<linearGradient id="SVGID_4_" gradientUnits="userSpaceOnUse" x1="71.6339" y1="88.6019" x2="129.1857" y2="88.6019">
			<stop  offset="0.0056" style="stop-color:#005BAA"/>
			<stop  offset="0.5" style="stop-color:#004689"/>
			<stop  offset="1" style="stop-color:#002F67"/>
		</linearGradient>
		
			<polygon fill="url(#SVGID_3_)" stroke="url(#SVGID_4_)" stroke-linecap="round" stroke-linejoin="round" stroke-miterlimit="10" points="
			72.194,137.377 72.134,137.344 72.237,72.286 128.626,39.827 128.686,39.857 128.591,104.922 		"/>
	</g>
	<g>
		
			<linearGradient id="SVGID_5_" gradientUnits="userSpaceOnUse" x1="559.9137" y1="73.5392" x2="597.547" y2="94.1011" gradientTransform="matrix(-1 0 0 1 629.125 0)">
			<stop  offset="0.0056" style="stop-color:#39B54A"/>
			<stop  offset="0.5" style="stop-color:#28903B"/>
			<stop  offset="1" style="stop-color:#0D6C28"/>
		</linearGradient>
		<linearGradient id="SVGID_6_" gradientUnits="userSpaceOnUse" x1="12.8755" y1="88.6019" x2="70.4199" y2="88.6019">
			<stop  offset="0.0056" style="stop-color:#39B54A"/>
			<stop  offset="0.5" style="stop-color:#28903B"/>
			<stop  offset="1" style="stop-color:#0D6C28"/>
		</linearGradient>
		
			<polygon fill="url(#SVGID_5_)" stroke="url(#SVGID_6_)" stroke-linecap="round" stroke-linejoin="round" stroke-miterlimit="10" points="
			69.86,137.377 69.92,137.344 69.817,72.286 13.426,39.827 13.376,39.857 13.463,104.922 		"/>
	</g>
</g>
<g>
	<path fill="#FFFFFF" d="M80.556,31.664c0.426-1.352,0.471-2.75,0.294-4.104c-0.406-3.078-1.971-5.945-3.745-8.678
		c-0.079-0.124-0.296-0.094-0.402,0c-0.293,0.265-0.599,0.522-0.91,0.775c0.255-0.281,0.483-0.568,0.67-0.863
		c0.386-0.603,0.302-1.089-0.119-1.627c-0.633-0.807-1.34-1.598-2.037-2.375c-0.728-0.809-2.085-1.834-3.601-1.2
		c-1.037,0.434-1.187,1.325-1.108,2.128c-0.214-0.245-0.387-0.505-0.533-0.791c-0.073-0.144-0.341-0.1-0.447,0
		c-1.14,1.075-2.126,2.228-2.936,3.443c-0.595,0.89-1.643,2.166-1.375,3.161c0.262,0.975,1.859,1.74,2.796,2.341
		c0.917,0.588,1.855,1.155,2.84,1.678c-2.185-0.712-4.217-1.614-6.08-2.702c-0.174-0.102-0.383,0.042-0.415,0.168
		c-0.596,2.419-0.978,4.855-1.108,7.295c-0.052,0.961-0.206,2.021,0.083,2.958c0.115,0.367,0.304,0.713,0.615,1.012
		c0.343,0.332,0.813,0.563,1.155,0.882c-0.49-0.166-0.949-0.363-1.391-0.603c-0.172-0.094-0.412,0.06-0.371,0.2
		c0.73,2.457,1.454,4.915,2.193,7.371h9.904l-0.259-0.048c-0.674-0.593-1.286-1.162-1.893-1.802l-6.564-6.668l0.325-1.305h6.761
		l2.516,1.684h-5.908l-0.003,0.048c0.672,0.617,1.286,1.162,1.926,1.779l6.023,6.317c0.128-0.253,0.229-0.523,0.329-0.806
		c0.93-2.613,1.59-5.266,2.005-7.93c0.021-0.144-0.173-0.218-0.342-0.198c-0.318,0.039-0.637,0.078-0.956,0.116
		c0.37-0.135,0.754-0.253,1.101-0.442C80.172,32.562,80.397,32.163,80.556,31.664"/>
	<path fill="#FFFFFF" d="M66.331,46.425c0.773,0.818,1.768,1.497,2.632,2.255c-1.361-0.805-2.552-1.734-3.57-2.792
		c-0.168-0.176-0.557-0.028-0.428,0.178c2.123,3.341,4.123,6.776,4.841,10.466c-0.061,1.396,0.63,2.781-0.002,4.163
		c-0.215,0.47,0.779,0.671,0.985,0.201c0.54-1.226,0.171-2.34-0.056-3.552c-0.298-1.593,0.214-3.027,1.137-4.512
		c1.787-2.88,4.072-5.636,6.107-8.434c0.152-0.214-0.113-0.403-0.406-0.311c-1.086,0.338-2.185,0.617-3.302,0.844
		c1.057-0.406,2.113-0.819,3.128-1.271H64.816C65.139,44.638,65.542,45.591,66.331,46.425"/>
</g>
<g>
	<path fill-rule="evenodd" clip-rule="evenodd" fill="#FFFFFF" d="M108.821,78.774c0.48,0.563,0.538,1.551,0.047,2.459
		c-1.659,2.473-3.894,4.314-5.785,6.589c-0.424,0.516-0.81,1.058-0.772,1.587c0.076,0.4,0.424,0.602,0.772,0.65
		c2.275,0.192,4.744-0.062,6.905,0.434c1.426,0.413,3.587,0.948,3.355,3.063c-0.155,1.05-1.119,2.155-2.045,2.785
		c-2.662,1.508-5.362,1.485-7.676,1.305c-4.05-0.343-7.444-2.352-11.61-2.351c-3.465,0.168-6.692,3.725-9.334,6.981l-0.154,0.202
		c-0.499,0.661-1.205,1.532-1.428,2.326c0.488-0.193,0.957-0.366,1.428-0.513c5.361-1.524,8.91,1.904,13.577,2.29
		c2.43,0.221,5.555-1.081,7.791-2.844c4.59-3.449,8.872-7.689,12.729-12.647c1.388-1.968,2.7-3.95,3.124-6.047
		c0.155-1.281-0.309-2.334-1.389-2.738c-2.391-0.658-5.285-0.042-7.715-0.612c-0.54-0.182-0.836-0.592-0.84-1.178
		c0-0.617,0.223-1.294,0.763-1.846l4.359-4.263c0.771-0.853,1.774-1.893,2.12-2.925c0.193-0.676,0.038-1.284-0.269-1.691
		c-1.737-1.939-5.129-2.08-7.702-0.394c-2.674,1.751-3.342,5.789-5.143,8.681c-0.578,0.948-1.35,2.302-2.468,2.297
		c-0.385-0.075-0.733-0.432-0.848-0.86c-0.695-2.101-0.964-4.526-2.354-6.107c-0.5-0.657-1.311-1.181-2.159-1.345
		c-1.929-0.568-4.551,0.851-6.286,2.616c-3.215,3.049-6.405,7.221-8.149,11.117c-0.836,1.869-1.49,4.583-0.69,5.594
		c1.573,1.989,5.125,1.542,7.834,1.556c0.829,0.004,1.452,0.521,1.826,1.072c1.424-1.038,2.804-2.936,3.421-4.513
		c0.385-1.005,0.385-2.278-0.193-2.949c-2.275-2.236-6.094-1.069-9.025-1.946c-0.618-0.274-1.003-0.889-0.85-1.707
		c0.193-0.676,0.694-1.331,1.235-1.805c1.079-0.985,2.739-1.261,3.742-0.989c6.364,1.332,7.135,8.079,7.29,14.549
		c0,0.244,0.293,0.465,0.463,0.091l6.376-14.283c0.341-0.838,1.167-1.591,1.917-2.021C106.492,77.606,108.006,77.816,108.821,78.774
		L108.821,78.774z"/>
</g>
<g>
	<path fill="#FFFFFF" d="M38.922,94.31c-0.483-0.29-0.678,0.25-0.678,1.072c0,0.935,0.267,1.568,0.647,1.797
		c0.175,0.105,0.349,0.117,0.453-0.088c0.041-0.088,0.062-0.23,0.062-0.363v-1.346c0-0.134-0.021-0.28-0.051-0.401
		C39.292,94.728,39.148,94.446,38.922,94.31z"/>
	<path fill="#FFFFFF" d="M49.599,102.528c-1.873-4.752-6.126-17.766-6.126-22.814c0-2.3,0-5.079,0-6.91l0.122,0.073
		c0.414,0.248,0.75,0.114,0.75-0.3c0-0.413-0.336-0.953-0.75-1.201l-9.378-5.635c-0.416-0.25-0.751-0.114-0.751,0.3
		c0,0.414,0.335,0.952,0.751,1.202l0.125,0.075c0,1.831,0,4.61,0,6.91c0,5.049-4.25,12.954-6.126,15.453
		c-1.877,2.498-2.505,5.872-0.875,7.48c2.812,2.814,8.003,6.431,11.568,8.574c3.562,2.14,8.754,4.762,11.568,5.328
		C52.094,111.383,51.475,107.28,49.599,102.528z M36.013,92.121l-3.617-0.488v0.02l3.617,3.849v1.038l-4.932-5.378v-0.637
		l4.932,0.548V92.121z M40.74,95.948v2.867c0,1.079-0.195,1.558-0.606,1.701c-0.37,0.127-0.894,0.017-1.634-0.427
		c-0.463-0.278-0.894-0.619-1.254-0.99l0.247-0.889c0.257,0.267,0.575,0.561,0.966,0.796c0.678,0.407,0.946,0.115,0.946-0.655
		v-0.308l-0.021-0.012c-0.174,0.213-0.524,0.188-0.904-0.04c-1.13-0.679-1.572-2.178-1.572-3.38c0-1.675,0.76-2.184,1.695-1.622
		c0.401,0.241,0.73,0.644,0.925,1.142l0.02,0.012l0.072-0.46l1.171,0.704C40.771,94.826,40.74,95.341,40.74,95.948z M46.731,100.698
		l-4.932-0.683v-1.017l3.946,0.665v-0.021l-3.946-4.077v-1.017l4.932,5.245V100.698z"/>
</g>
</svg>
