<?xml version="1.0" encoding="utf-8"?>
<!-- Generator: Adobe Illustrator 17.0.0, SVG Export Plug-In . SVG Version: 6.00 Build 0)  -->
<!DOCTYPE svg PUBLIC "-//W3C//DTD SVG 1.1//EN" "http://www.w3.org/Graphics/SVG/1.1/DTD/svg11.dtd">
<svg version="1.1" id="Capa_1" xmlns="http://www.w3.org/2000/svg" xmlns:xlink="http://www.w3.org/1999/xlink" x="0px" y="0px"
	 width="29px" height="29px" viewBox="200.559 200.559 29 29" enable-background="new 200.559 200.559 29 29" xml:space="preserve">
<g>
	<path id="LinkedIn" d="M229.186,218.113v10.446h-6.056v-9.746c0-2.448-0.876-4.119-3.068-4.119c-1.673,0-2.669,1.126-3.107,2.215
		c-0.16,0.389-0.201,0.931-0.201,1.477v10.174h-6.058c0,0,0.082-16.507,0-18.217h6.057v2.582c-0.012,0.019-0.028,0.04-0.04,0.059
		h0.04v-0.059c0.805-1.24,2.242-3.01,5.459-3.01C226.198,209.913,229.186,212.517,229.186,218.113z M204.359,201.559
		c-2.072,0-3.428,1.359-3.428,3.147c0,1.749,1.316,3.149,3.348,3.149h0.04c2.113,0,3.426-1.4,3.426-3.149
		C207.706,202.919,206.432,201.559,204.359,201.559z M201.291,228.559h6.056v-18.217h-6.056V228.559z"/>
</g>
</svg>
